<svg width="120" height="120" viewBox="0 0 120 120" fill="none" xmlns="http://www.w3.org/2000/svg">
<g clip-path="url(#clip0_2433_11)">
<path d="M60 19.0083C73.35 19.0083 74.9333 19.0583 80.2042 19.3C85.6542 19.55 91.2667 20.7917 95.2375 24.7625C99.2458 28.7708 100.45 34.3292 100.7 39.7958C100.942 45.0667 100.992 46.65 100.992 60C100.992 73.35 100.942 74.9333 100.7 80.2042C100.454 85.625 99.1833 91.2917 95.2375 95.2375C91.2292 99.2458 85.675 100.45 80.2042 100.7C74.9333 100.942 73.35 100.992 60 100.992C46.65 100.992 45.0667 100.942 39.7958 100.7C34.4167 100.454 28.675 99.1542 24.7625 95.2375C20.775 91.25 19.55 85.6375 19.3 80.2042C19.0583 74.9333 19.0083 73.35 19.0083 60C19.0083 46.65 19.0583 45.0667 19.3 39.7958C19.5458 34.3958 20.8292 28.6958 24.7625 24.7625C28.7625 20.7625 34.3417 19.55 39.7958 19.3C45.0667 19.0583 46.65 19.0083 60 19.0083ZM60 10C46.4208 10 44.7167 10.0583 39.3833 10.3C31.6542 10.6542 23.9792 12.8042 18.3917 18.3917C12.7833 24 10.6542 31.6583 10.3 39.3833C10.0583 44.7167 10 46.4208 10 60C10 73.5792 10.0583 75.2833 10.3 80.6167C10.6542 88.3375 12.8125 96.0333 18.3917 101.608C23.9958 107.212 31.6667 109.346 39.3833 109.7C44.7167 109.942 46.4208 110 60 110C73.5792 110 75.2833 109.942 80.6167 109.7C88.3417 109.346 96.025 107.192 101.608 101.608C107.221 95.9958 109.346 88.3417 109.7 80.6167C109.942 75.2833 110 73.5792 110 60C110 46.4208 109.942 44.7167 109.7 39.3833C109.346 31.6542 107.192 23.975 101.608 18.3917C96.0125 12.7958 88.3208 10.65 80.6167 10.3C75.2833 10.0583 73.5792 10 60 10Z" fill="white"/>
<path d="M60.0002 34.3252C45.821 34.3252 34.3252 45.821 34.3252 60.0002C34.3252 74.1794 45.821 85.6752 60.0002 85.6752C74.1794 85.6752 85.6752 74.1794 85.6752 60.0002C85.6752 45.821 74.1794 34.3252 60.0002 34.3252ZM60.0002 76.6669C50.796 76.6669 43.3335 69.2044 43.3335 60.0002C43.3335 50.796 50.796 43.3335 60.0002 43.3335C69.2044 43.3335 76.6669 50.796 76.6669 60.0002C76.6669 69.2044 69.2044 76.6669 60.0002 76.6669Z" fill="white"/>
<path d="M86.6919 39.3086C90.0056 39.3086 92.6919 36.6223 92.6919 33.3086C92.6919 29.9949 90.0056 27.3086 86.6919 27.3086C83.3782 27.3086 80.6919 29.9949 80.6919 33.3086C80.6919 36.6223 83.3782 39.3086 86.6919 39.3086Z" fill="white"/>
</g>
<defs>
<clipPath id="clip0_2433_11">
<rect width="100" height="100" fill="white" transform="translate(10 10)"/>
</clipPath>
</defs>
</svg>
