<svg width="100" height="100" viewBox="0 0 100 100" fill="none" xmlns="http://www.w3.org/2000/svg">
<path fill-rule="evenodd" clip-rule="evenodd" d="M76.5999 90.7451C77.9415 91.6951 79.6707 91.9326 81.2123 91.3493C82.7539 90.7618 83.8872 89.4452 84.2289 87.8494C87.8496 70.8331 96.6328 27.7633 99.9286 12.2845C100.179 11.1179 99.7619 9.9054 98.8452 9.12625C97.9286 8.3471 96.6578 8.12211 95.5245 8.54293C78.054 15.0095 24.2511 35.1965 2.25994 43.3338C0.86414 43.8505 -0.0441745 45.1921 0.00165768 46.6629C0.0516567 48.1379 1.0433 49.417 2.47244 49.8462C12.3347 52.796 25.2803 56.9001 25.2803 56.9001C25.2803 56.9001 31.3301 75.1705 34.4842 84.462C34.88 85.6286 35.7925 86.5452 36.9967 86.8619C38.1966 87.1744 39.4799 86.8452 40.3758 85.9994C45.4423 81.2162 53.2754 73.8205 53.2754 73.8205C53.2754 73.8205 68.1584 84.7328 76.5999 90.7451ZM30.726 54.5918L37.7216 77.6663L39.2758 63.0541C39.2758 63.0541 66.3043 38.6756 81.7123 24.7801C82.1623 24.3718 82.2248 23.6884 81.8498 23.2093C81.479 22.7301 80.7956 22.6176 80.2832 22.9426C62.4252 34.3465 30.726 54.5918 30.726 54.5918Z" fill="white"/>
</svg>
