<svg width="120" height="120" viewBox="0 0 120 120" fill="none" xmlns="http://www.w3.org/2000/svg">
<path fill-rule="evenodd" clip-rule="evenodd" d="M86.5999 100.745C87.9415 101.695 89.6707 101.933 91.2123 101.349C92.7539 100.762 93.8872 99.4452 94.2289 97.8494C97.8497 80.8331 106.633 37.7634 109.929 22.2845C110.179 21.1179 109.762 19.9054 108.845 19.1263C107.929 18.3471 106.658 18.1221 105.524 18.5429C88.054 25.0095 34.2511 45.1965 12.2599 53.3338C10.8641 53.8505 9.95583 55.1921 10.0017 56.6629C10.0517 58.1379 11.0433 59.417 12.4724 59.8462C22.3347 62.796 35.2803 66.9001 35.2803 66.9001C35.2803 66.9001 41.3301 85.1705 44.4842 94.462C44.88 95.6286 45.7925 96.5452 46.9967 96.8619C48.1966 97.1744 49.4799 96.8452 50.3758 95.9994C55.4423 91.2162 63.2754 83.8205 63.2754 83.8205C63.2754 83.8205 78.1584 94.7328 86.5999 100.745ZM40.726 64.5918L47.7216 87.6663L49.2758 73.0541C49.2758 73.0541 76.3043 48.6756 91.7123 34.7801C92.1623 34.3718 92.2248 33.6884 91.8498 33.2093C91.479 32.7301 90.7956 32.6176 90.2832 32.9426C72.4252 44.3465 40.726 64.5918 40.726 64.5918Z" fill="white"/>
</svg>
