<svg width="100" height="100" viewBox="0 0 100 100" fill="none" xmlns="http://www.w3.org/2000/svg">
<g clip-path="url(#clip0_1938_69)">
<path d="M93.2 41.1103C84.2875 41.1103 76.025 38.2603 69.2833 33.4186V68.3561C69.2833 85.8061 55.0875 99.9978 37.6417 99.9978C30.9 99.9978 24.6458 97.8728 19.5083 94.2644C11.35 88.5353 6 79.0603 6 68.3561C6 50.9061 20.1958 36.7103 37.6458 36.7103C39.0958 36.7103 40.5125 36.8311 41.9083 37.0186V41.0895V54.5686C40.5583 54.1478 39.1333 53.902 37.6458 53.902C29.6792 53.902 23.1958 60.3853 23.1958 68.3561C23.1958 73.9061 26.3458 78.727 30.9458 81.1478C32.95 82.202 35.2292 82.8061 37.65 82.8061C45.4333 82.8061 51.7833 76.6144 52.075 68.8978L52.0875 0.00195312H69.2792C69.2792 1.49362 69.425 2.94779 69.6833 4.36445C70.8958 10.9145 74.7833 16.5353 80.1708 20.0478C83.9208 22.4936 88.3958 23.9228 93.1958 23.9228L93.2 41.1103Z" fill="white"/>
</g>
<defs>
<clipPath id="clip0_1938_69">
<rect width="100" height="99.9958" fill="white" transform="translate(0 0.00195312)"/>
</clipPath>
</defs>
</svg>
