<svg width="120" height="120" viewBox="0 0 120 120" fill="none" xmlns="http://www.w3.org/2000/svg">
<g clip-path="url(#clip0_2433_5)">
<path d="M103.2 51.1083C94.2875 51.1083 86.025 48.2583 79.2833 43.4167V78.3542C79.2833 95.8042 65.0875 109.996 47.6417 109.996C40.9 109.996 34.6458 107.871 29.5083 104.262C21.35 98.5333 16 89.0583 16 78.3542C16 60.9042 30.1958 46.7083 47.6458 46.7083C49.0958 46.7083 50.5125 46.8292 51.9083 47.0167V51.0875V64.5667C50.5583 64.1458 49.1333 63.9 47.6458 63.9C39.6792 63.9 33.1958 70.3833 33.1958 78.3542C33.1958 83.9042 36.3458 88.725 40.9458 91.1458C42.95 92.2 45.2292 92.8042 47.65 92.8042C55.4333 92.8042 61.7833 86.6125 62.075 78.8958L62.0875 10H79.2792C79.2792 11.4917 79.425 12.9458 79.6833 14.3625C80.8958 20.9125 84.7833 26.5333 90.1708 30.0458C93.9208 32.4917 98.3958 33.9208 103.196 33.9208L103.2 51.1083Z" fill="white"/>
</g>
<defs>
<clipPath id="clip0_2433_5">
<rect width="100" height="99.9958" fill="white" transform="translate(10 10)"/>
</clipPath>
</defs>
</svg>
