<svg width="100" height="100" viewBox="0 0 100 100" fill="none" xmlns="http://www.w3.org/2000/svg">
<path d="M41.4155 85.0286C22.3709 84.678 15.8662 84.3626 11.8681 83.5388C9.16308 82.9915 6.81243 81.7763 5.08886 80.0138C3.75676 78.6798 2.69739 76.6446 1.8755 73.8208C1.17048 71.4683 0.895901 69.511 0.504434 64.7299C-0.0948249 53.9395 -0.237682 45.1176 0.504434 35.2605C1.11668 29.817 1.41353 23.3551 5.48033 19.5851C7.40055 17.8207 9.63432 16.6853 12.1427 16.2159C16.0611 15.4719 32.755 14.8838 50.037 14.8838C67.2801 14.8838 84.0111 15.4719 87.9332 16.2159C91.0668 16.804 94.0056 18.5665 95.731 20.8393C99.4416 26.676 99.5065 33.9339 99.8831 39.6111C100.039 42.3161 100.039 57.6761 99.8831 60.3811C99.2968 69.3533 98.8256 72.5277 97.4935 75.819C96.6698 77.8969 95.9666 78.9934 94.7495 80.2086C92.8407 82.0787 90.4073 83.3225 87.7736 83.7745C71.2931 85.0138 57.2986 85.2828 41.4155 85.0286ZM66.653 48.9766C57.4841 44.0768 48.7049 39.5332 39.7309 34.83V62.9674C49.1743 57.8338 59.1298 53.1306 66.6919 48.9377L66.653 48.9766Z" fill="white"/>
</svg>
