<svg width="120" height="120" viewBox="0 0 120 120" fill="none" xmlns="http://www.w3.org/2000/svg">
<path d="M51.4155 95.0286C32.3709 94.678 25.8662 94.3626 21.8681 93.5388C19.1631 92.9915 16.8124 91.7763 15.0889 90.0138C13.7568 88.6798 12.6974 86.6446 11.8755 83.8208C11.1705 81.4683 10.8959 79.511 10.5044 74.7299C9.90518 63.9395 9.76232 55.1176 10.5044 45.2605C11.1167 39.817 11.4135 33.355 15.4803 29.5851C17.4006 27.8207 19.6343 26.6853 22.1427 26.2159C26.0611 25.4719 42.755 24.8838 60.037 24.8838C77.2801 24.8838 94.0111 25.4719 97.9332 26.2159C101.067 26.804 104.006 28.5665 105.731 30.8393C109.442 36.676 109.506 43.9339 109.883 49.6111C110.039 52.3161 110.039 67.6761 109.883 70.3811C109.297 79.3533 108.826 82.5277 107.494 85.819C106.67 87.8969 105.967 88.9934 104.75 90.2086C102.841 92.0786 100.407 93.3225 97.7736 93.7745C81.2931 95.0138 67.2986 95.2828 51.4155 95.0286ZM76.653 58.9766C67.4841 54.0768 58.7049 49.5332 49.7309 44.83V72.9674C59.1743 67.8338 69.1298 63.1306 76.692 58.9377L76.653 58.9766Z" fill="white"/>
</svg>
