<svg width="680" height="228" viewBox="0 0 680 228" fill="none" xmlns="http://www.w3.org/2000/svg">
<g filter="url(#filter0_ddi_2419_69)">
<path fill-rule="evenodd" clip-rule="evenodd" d="M20 34C20 31.7909 21.7909 30 24 30H36C38.2091 30 40 31.7909 40 34V66L74.8284 31.1716C75.5786 30.4214 76.596 30 77.6569 30H90.3431C93.9068 30 95.6914 34.3086 93.1716 36.8284L60 70L93.1716 103.172C95.6914 105.691 93.9068 110 90.3431 110H77.6569C76.596 110 75.5786 109.579 74.8284 108.828L48 82L40 90V106C40 108.209 38.2091 110 36 110H24C21.7909 110 20 108.209 20 106V34Z" fill="white"/>
<path fill-rule="evenodd" clip-rule="evenodd" d="M606.598 82L616.098 56.6667L625.598 82H606.598ZM631.598 98H600.598L597.071 107.404C596.486 108.966 594.993 110 593.326 110H580.006C577.176 110 575.241 107.142 576.292 104.514L605.092 32.5144C605.699 30.9958 607.17 30 608.806 30H611.87H620.326H623.39C625.025 30 626.496 30.9958 627.104 32.5144L655.904 104.514C656.955 107.142 655.02 110 652.19 110H638.87C637.202 110 635.71 108.966 635.124 107.404L631.598 98Z" fill="white"/>
<path fill-rule="evenodd" clip-rule="evenodd" d="M524 30C521.791 30 520 31.7909 520 34V50H560V60C560 76.5685 546.569 90 530 90H524C521.791 90 520 91.7909 520 94V106C520 108.209 521.791 110 524 110H530C557.614 110 580 87.6142 580 60V50V44V30H524Z" fill="white"/>
<path fill-rule="evenodd" clip-rule="evenodd" d="M448 34C448 31.7909 449.791 30 452 30H468H488H504C506.209 30 508 31.7909 508 34V50H488V90H508V106C508 108.209 506.209 110 504 110H488H468H452C449.791 110 448 108.209 448 106V90H468V50H448V34Z" fill="white"/>
<path fill-rule="evenodd" clip-rule="evenodd" d="M366 30C363.791 30 362 31.7909 362 34V106C362 108.209 363.791 110 366 110H372H382H402C424.091 110 442 92.0914 442 70C442 47.9086 424.091 30 402 30H382H372H366ZM382 50V90H402C413.046 90 422 81.0457 422 70C422 58.9543 413.046 50 402 50H382Z" fill="white"/>
<path fill-rule="evenodd" clip-rule="evenodd" d="M294 30C291.791 30 290 31.7909 290 34V106C290 108.209 291.791 110 294 110H310H346C348.209 110 350 108.209 350 106V94C350 91.7909 348.209 90 346 90H310V80H346C348.209 80 350 78.2091 350 76V64C350 61.7909 348.209 60 346 60H310V50H346C348.209 50 350 48.2091 350 46V34C350 31.7909 348.209 30 346 30H310H294Z" fill="white"/>
<path fill-rule="evenodd" clip-rule="evenodd" d="M202 30C199.791 30 198 31.7909 198 34V106C198 108.209 199.791 110 202 110H214C216.209 110 218 108.209 218 106V76.6651L226.962 97.5757C227.592 99.0464 229.038 100 230.638 100H234.066H241.934H245.362C246.962 100 248.408 99.0464 249.038 97.5757L258 76.6651V106C258 108.209 259.791 110 262 110H274C276.209 110 278 108.209 278 106V34C278 31.7909 276.209 30 274 30H271.933H262H260.637C259.037 30 257.591 30.9536 256.96 32.4243L238 76.6651L219.04 32.4243C218.409 30.9536 216.963 30 215.363 30H214H204.067H202Z" fill="white"/>
<path fill-rule="evenodd" clip-rule="evenodd" d="M146 20C123.909 20 106 37.9086 106 60V80C106 102.091 123.909 120 146 120C168.091 120 186 102.091 186 80V60C186 37.9086 168.091 20 146 20ZM146 36C132.745 36 122 46.7452 122 60V80C122 93.2548 132.745 104 146 104C159.255 104 170 93.2548 170 80V60C170 46.7452 159.255 36 146 36Z" fill="white"/>
<path fill-rule="evenodd" clip-rule="evenodd" d="M156 110C156 107.791 154.209 106 152 106H140C137.791 106 136 107.791 136 110L136 188H110C107.791 188 106 189.791 106 192V204C106 206.209 107.791 208 110 208H182C184.209 208 186 206.209 186 204V192C186 189.791 184.209 188 182 188H156L156 110Z" fill="white"/>
<path fill-rule="evenodd" clip-rule="evenodd" d="M630 148C631.733 148 634.555 148.602 636.657 150.115C638.249 151.261 640 153.259 640 158C640 159.733 639.398 162.555 637.885 164.657C636.739 166.249 634.741 168 630 168L600 168V148L630 148ZM596 128H630C634.934 128 642.111 129.398 648.343 133.885C655.085 138.739 660 146.741 660 158C660 162.934 658.602 170.111 654.115 176.343C649.261 183.085 641.259 188 630 188L600 188V204C600 206.209 598.209 208 596 208H584C581.791 208 580 206.209 580 204V132C580 129.791 581.791 128 584 128L590 128L596 128Z" fill="white"/>
<path fill-rule="evenodd" clip-rule="evenodd" d="M630 148C631.733 148 634.555 148.602 636.657 150.115C638.249 151.261 640 153.259 640 158C640 159.733 639.398 162.555 637.885 164.657C636.739 166.249 634.741 168 630 168L600 168V148L630 148ZM596 128H630C634.934 128 642.111 129.398 648.343 133.885C655.085 138.739 660 146.741 660 158C660 162.934 658.602 170.111 654.115 176.343C649.261 183.085 641.259 188 630 188L600 188V204C600 206.209 598.209 208 596 208H584C581.791 208 580 206.209 580 204V132C580 129.791 581.791 128 584 128L590 128L596 128Z" fill="#FFCD61" fill-opacity="0.2"/>
<path fill-rule="evenodd" clip-rule="evenodd" d="M570 204C570 206.209 568.209 208 566 208L492 208C469.909 208 452 190.091 452 168C452 145.909 469.909 128 492 128L566 128C568.209 128 570 129.791 570 132L570 144C570 146.209 568.209 148 566 148L492 148C480.954 148 472 156.954 472 168C472 179.046 480.954 188 492 188L566 188C568.209 188 570 189.791 570 192L570 204Z" fill="white"/>
<path fill-rule="evenodd" clip-rule="evenodd" d="M570 204C570 206.209 568.209 208 566 208L492 208C469.909 208 452 190.091 452 168C452 145.909 469.909 128 492 128L566 128C568.209 128 570 129.791 570 132L570 144C570 146.209 568.209 148 566 148L492 148C480.954 148 472 156.954 472 168C472 179.046 480.954 188 492 188L566 188C568.209 188 570 189.791 570 192L570 204Z" fill="#FFCD61" fill-opacity="0.2"/>
<path fill-rule="evenodd" clip-rule="evenodd" d="M228.598 180L238.098 154.667L247.598 180H228.598ZM253.598 196H222.598L219.071 205.404C218.486 206.966 216.993 208 215.326 208H202.006C199.176 208 197.241 205.142 198.292 202.514L227.092 130.514C227.699 128.996 229.17 128 230.806 128H233.87H242.326H245.39C247.025 128 248.496 128.996 249.104 130.514L277.904 202.514C278.955 205.142 277.019 208 274.19 208H260.87C259.202 208 257.71 206.966 257.124 205.404L253.598 196Z" fill="white"/>
<path fill-rule="evenodd" clip-rule="evenodd" d="M228.598 180L238.098 154.667L247.598 180H228.598ZM253.598 196H222.598L219.071 205.404C218.486 206.966 216.993 208 215.326 208H202.006C199.176 208 197.241 205.142 198.292 202.514L227.092 130.514C227.699 128.996 229.17 128 230.806 128H233.87H242.326H245.39C247.025 128 248.496 128.996 249.104 130.514L277.904 202.514C278.955 205.142 277.019 208 274.19 208H260.87C259.202 208 257.71 206.966 257.124 205.404L253.598 196Z" fill="#FF6A00" fill-opacity="0.2"/>
<path fill-rule="evenodd" clip-rule="evenodd" d="M366 128C363.791 128 362 129.791 362 132V204C362 206.209 363.791 208 366 208H372H382H402C424.091 208 442 190.091 442 168C442 145.909 424.091 128 402 128H382H372H366ZM382 148V188H402C413.046 188 422 179.046 422 168C422 156.954 413.046 148 402 148H382Z" fill="white"/>
<path fill-rule="evenodd" clip-rule="evenodd" d="M366 128C363.791 128 362 129.791 362 132V204C362 206.209 363.791 208 366 208H372H382H402C424.091 208 442 190.091 442 168C442 145.909 424.091 128 402 128H382H372H366ZM382 148V188H402C413.046 188 422 179.046 422 168C422 156.954 413.046 148 402 148H382Z" fill="#FF6A00" fill-opacity="0.2"/>
<path fill-rule="evenodd" clip-rule="evenodd" d="M290 132C290 129.791 291.791 128 294 128H296.472H306H307.528C309.043 128 310.428 128.856 311.106 130.211L330 168V132C330 129.791 331.791 128 334 128H346C348.209 128 350 129.791 350 132V204C350 206.209 348.209 208 346 208H343.528H334H332.472C330.957 208 329.572 207.144 328.894 205.789L310 168V204C310 206.209 308.209 208 306 208H294C291.791 208 290 206.209 290 204V132Z" fill="white"/>
<path fill-rule="evenodd" clip-rule="evenodd" d="M290 132C290 129.791 291.791 128 294 128H296.472H306H307.528C309.043 128 310.428 128.856 311.106 130.211L330 168V132C330 129.791 331.791 128 334 128H346C348.209 128 350 129.791 350 132V204C350 206.209 348.209 208 346 208H343.528H334H332.472C330.957 208 329.572 207.144 328.894 205.789L310 168V204C310 206.209 308.209 208 306 208H294C291.791 208 290 206.209 290 204V132Z" fill="#FF6A00" fill-opacity="0.2"/>
<path fill-rule="evenodd" clip-rule="evenodd" d="M90 128C92.2091 128 94 129.791 94 132V144C94 146.209 92.2091 148 90 148L36 148L36 160L90 160C92.2091 160 94 161.791 94 164V170V172V192V196V204C94 206.209 92.2091 208 90 208H24C21.7909 208 20 206.209 20 204V192C20 189.791 21.7909 188 24 188L78 188V176L24 176C21.7909 176 20 174.209 20 172V166V164V144V140V132C20 129.791 21.7909 128 24 128L90 128Z" fill="white"/>
<path fill-rule="evenodd" clip-rule="evenodd" d="M90 128C92.2091 128 94 129.791 94 132V144C94 146.209 92.2091 148 90 148L36 148L36 160L90 160C92.2091 160 94 161.791 94 164V170V172V192V196V204C94 206.209 92.2091 208 90 208H24C21.7909 208 20 206.209 20 204V192C20 189.791 21.7909 188 24 188L78 188V176L24 176C21.7909 176 20 174.209 20 172V166V164V144V140V132C20 129.791 21.7909 128 24 128L90 128Z" fill="#FF6A00" fill-opacity="0.2"/>
</g>
<defs>
<filter id="filter0_ddi_2419_69" x="20" y="20" width="642" height="198" filterUnits="userSpaceOnUse" color-interpolation-filters="sRGB">
<feFlood flood-opacity="0" result="BackgroundImageFix"/>
<feColorMatrix in="SourceAlpha" type="matrix" values="0 0 0 0 0 0 0 0 0 0 0 0 0 0 0 0 0 0 127 0" result="hardAlpha"/>
<feOffset dy="6"/>
<feComposite in2="hardAlpha" operator="out"/>
<feColorMatrix type="matrix" values="0 0 0 0 1 0 0 0 0 1 0 0 0 0 1 0 0 0 0.25 0"/>
<feBlend mode="normal" in2="BackgroundImageFix" result="effect1_dropShadow_2419_69"/>
<feColorMatrix in="SourceAlpha" type="matrix" values="0 0 0 0 0 0 0 0 0 0 0 0 0 0 0 0 0 0 127 0" result="hardAlpha"/>
<feOffset dy="10"/>
<feComposite in2="hardAlpha" operator="out"/>
<feColorMatrix type="matrix" values="0 0 0 0 0 0 0 0 0 0 0 0 0 0 0 0 0 0 0.25 0"/>
<feBlend mode="normal" in2="effect1_dropShadow_2419_69" result="effect2_dropShadow_2419_69"/>
<feBlend mode="normal" in="SourceGraphic" in2="effect2_dropShadow_2419_69" result="shape"/>
<feColorMatrix in="SourceAlpha" type="matrix" values="0 0 0 0 0 0 0 0 0 0 0 0 0 0 0 0 0 0 127 0" result="hardAlpha"/>
<feOffset dx="2" dy="2"/>
<feGaussianBlur stdDeviation="3"/>
<feComposite in2="hardAlpha" operator="arithmetic" k2="-1" k3="1"/>
<feColorMatrix type="matrix" values="0 0 0 0 0.65098 0 0 0 0 0.317647 0 0 0 0 0.992157 0 0 0 0.5 0"/>
<feBlend mode="normal" in2="shape" result="effect3_innerShadow_2419_69"/>
</filter>
</defs>
</svg>
