<svg width="88" height="81" viewBox="0 0 88 81" fill="none" xmlns="http://www.w3.org/2000/svg">
<path d="M43.35 8.63333L43.3502 8.63361L43.3503 8.63371L43.75 9.16667L44.1497 8.63371L44.1498 8.63361L44.15 8.63333L44.1523 8.63032L44.1637 8.61551C44.1743 8.6018 44.191 8.5805 44.2137 8.55209C44.2591 8.49529 44.3288 8.41013 44.4226 8.30066C44.6103 8.08169 44.8946 7.76564 45.2754 7.3848C46.0374 6.62287 47.184 5.60323 48.7148 4.58269C51.7745 2.5429 56.3671 0.5 62.5 0.5C76.7806 0.5 87 11.7072 87 26.0417C87 34.2369 83.6497 42.0184 78.7237 49.1668C73.7983 56.3143 67.3217 62.7941 61.124 68.3783C57.2927 71.8243 53.9286 74.6693 51.0107 76.6515C48.0752 78.6457 45.6728 79.7083 43.75 79.7083C41.8261 79.7083 39.3814 78.6393 36.4257 76.643C33.4884 74.659 30.1249 71.8147 26.3795 68.3814L26.3795 68.3814C20.2834 62.7951 13.8059 56.3146 8.85372 49.1658C3.90089 42.016 0.5 34.2351 0.5 26.0417C0.5 11.7072 10.7194 0.5 25 0.5C31.1328 0.5 35.7255 2.5429 38.7851 4.58269C40.316 5.60323 41.4626 6.62287 42.2246 7.3848C42.6054 7.76564 42.8897 8.08169 43.0774 8.30066C43.1712 8.41013 43.2409 8.49529 43.2863 8.55209C43.309 8.5805 43.3257 8.6018 43.3363 8.61551L43.3477 8.63032L43.35 8.63333Z" fill="#DD3C3C" stroke="black"/>
</svg>
