<svg width="88" height="81" viewBox="0 0 88 81" fill="none" xmlns="http://www.w3.org/2000/svg">
<path d="M77.0769 48.032C72.2831 54.9884 65.9417 61.3453 59.7865 66.8913C55.9633 70.3301 52.6845 73.0966 49.8868 74.9971C47.0013 76.9574 45.0304 77.7083 43.75 77.7083C42.4639 77.7083 40.4485 76.9466 37.5451 74.9856C34.7337 73.0866 31.4578 70.3234 27.731 66.9071L27.7307 66.9069C21.6672 61.3504 15.3212 54.9898 10.4978 48.0269C5.67112 41.0593 2.5 33.6754 2.5 26.0417C2.5 12.7025 11.9301 2.5 25 2.5C30.6642 2.5 34.8773 4.38118 37.6757 6.24679C39.0798 7.18281 40.1257 8.11437 40.8104 8.79902C41.1521 9.14072 41.4017 9.41884 41.5589 9.60224C41.6374 9.69386 41.6927 9.76159 41.7246 9.80148C41.7405 9.82142 41.7506 9.83438 41.7549 9.83986C41.757 9.8426 41.7577 9.84347 41.7568 9.8424L43.75 12.5L45.7432 9.8424C45.7423 9.84347 45.743 9.8426 45.7451 9.83986C45.7494 9.83438 45.7595 9.82142 45.7754 9.80148C45.8073 9.76159 45.8626 9.69386 45.9411 9.60224C46.0983 9.41884 46.3479 9.14072 46.6896 8.79902C47.3743 8.11437 48.4202 7.18281 49.8242 6.24679C52.6227 4.38118 56.8358 2.5 62.5 2.5C75.5699 2.5 85 12.7025 85 26.0417C85 33.6845 81.8735 41.0712 77.0769 48.032Z" fill="#DD3C3C" stroke="#1E1E1E" stroke-width="5"/>
</svg>
