<svg width="150" height="150" viewBox="0 0 150 150" fill="none" xmlns="http://www.w3.org/2000/svg">
<path fill-rule="evenodd" clip-rule="evenodd" d="M75 0C33.5786 0 0 33.5786 0 75C0 112.598 27.6655 143.734 63.75 149.162V114.33C50.6416 109.696 41.25 97.195 41.25 82.5V67.5C41.25 48.8604 56.3604 33.75 75 33.75C93.6396 33.75 108.75 48.8604 108.75 67.5V82.5C108.75 97.195 99.3584 109.696 86.25 114.33V149.162C122.334 143.734 150 112.598 150 75C150 33.5786 116.421 0 75 0Z" fill="white"/>
<path fill-rule="evenodd" clip-rule="evenodd" d="M75 41.25C60.5025 41.25 48.75 53.0025 48.75 67.5V82.5C48.75 95.7243 58.5289 106.665 71.25 108.484V150H78.75V108.484C91.4711 106.665 101.25 95.7243 101.25 82.5V67.5C101.25 53.0025 89.4975 41.25 75 41.25Z" fill="white"/>
</svg>
